<mxfile host="app.diagrams.net" modified="2023-04-21T07:06:18.165Z" agent="Mozilla/5.0 (Windows NT 10.0; Win64; x64) AppleWebKit/537.36 (KHTML, like Gecko) Chrome/112.0.0.0 Safari/537.36 Edg/112.0.1722.48" etag="F8n-bEmCK6gguW4l8u7Z" version="21.2.1" type="github">
  <diagram name="Page-1" id="0783ab3e-0a74-02c8-0abd-f7b4e66b4bec">
    <mxGraphModel dx="931" dy="672" grid="1" gridSize="10" guides="1" tooltips="1" connect="1" arrows="1" fold="1" page="1" pageScale="1" pageWidth="850" pageHeight="1100" background="none" math="0" shadow="0">
      <root>
        <mxCell id="0" />
        <mxCell id="1" parent="0" />
        <mxCell id="1c1d494c118603dd-1" value="frmAddPerson" style="swimlane;html=1;childLayout=stackLayout;startSize=20;rounded=0;shadow=0;comic=0;labelBackgroundColor=none;strokeWidth=1;fontFamily=Verdana;fontSize=12;align=center;" parent="1" vertex="1">
          <mxGeometry x="90" y="10" width="740" height="990" as="geometry" />
        </mxCell>
        <mxCell id="1c1d494c118603dd-2" value="Button_Click" style="swimlane;html=1;startSize=20;" parent="1c1d494c118603dd-1" vertex="1">
          <mxGeometry y="20" width="250" height="970" as="geometry">
            <mxRectangle y="20" width="40" height="970" as="alternateBounds" />
          </mxGeometry>
        </mxCell>
        <mxCell id="__kyZQ2Cpn_k_XHxGJDG-5" value="" style="ellipse;html=1;shape=startState;fillColor=#000000;strokeColor=#ff0000;verticalAlign=middle;spacingTop=0;spacingBottom=40;" vertex="1" parent="1c1d494c118603dd-2">
          <mxGeometry x="110" y="40" width="30" height="30" as="geometry" />
        </mxCell>
        <mxCell id="__kyZQ2Cpn_k_XHxGJDG-6" value="" style="edgeStyle=orthogonalEdgeStyle;html=1;verticalAlign=bottom;endArrow=open;endSize=8;strokeColor=#ff0000;rounded=0;" edge="1" parent="1c1d494c118603dd-2">
          <mxGeometry relative="1" as="geometry">
            <mxPoint x="320" y="180" as="targetPoint" />
            <mxPoint x="124.99999999999989" y="120" as="sourcePoint" />
            <Array as="points">
              <mxPoint x="125" y="180" />
            </Array>
          </mxGeometry>
        </mxCell>
        <mxCell id="__kyZQ2Cpn_k_XHxGJDG-9" value="Person hinzufügen" style="rounded=1;whiteSpace=wrap;html=1;arcSize=40;fontColor=#000000;fillColor=#ffffc0;strokeColor=#ff0000;" vertex="1" parent="1c1d494c118603dd-2">
          <mxGeometry x="65" y="80" width="120" height="40" as="geometry" />
        </mxCell>
        <mxCell id="__kyZQ2Cpn_k_XHxGJDG-10" value="" style="edgeStyle=orthogonalEdgeStyle;html=1;verticalAlign=bottom;endArrow=open;endSize=8;strokeColor=#ff0000;rounded=0;" edge="1" source="__kyZQ2Cpn_k_XHxGJDG-9" parent="1c1d494c118603dd-2">
          <mxGeometry relative="1" as="geometry">
            <mxPoint x="125" y="180" as="targetPoint" />
          </mxGeometry>
        </mxCell>
        <mxCell id="__kyZQ2Cpn_k_XHxGJDG-11" value="Dienstgradgruppe auswählen" style="rounded=1;whiteSpace=wrap;html=1;arcSize=40;fontColor=#000000;fillColor=#ffffc0;strokeColor=#ff0000;" vertex="1" parent="1c1d494c118603dd-2">
          <mxGeometry x="65" y="250" width="120" height="40" as="geometry" />
        </mxCell>
        <mxCell id="__kyZQ2Cpn_k_XHxGJDG-12" value="" style="edgeStyle=orthogonalEdgeStyle;html=1;verticalAlign=bottom;endArrow=open;endSize=8;strokeColor=#ff0000;rounded=0;" edge="1" source="__kyZQ2Cpn_k_XHxGJDG-11" parent="1c1d494c118603dd-2">
          <mxGeometry relative="1" as="geometry">
            <mxPoint x="320" y="360" as="targetPoint" />
            <Array as="points">
              <mxPoint x="125" y="360" />
            </Array>
          </mxGeometry>
        </mxCell>
        <mxCell id="1c1d494c118603dd-3" value="Userfrom" style="swimlane;html=1;startSize=20;" parent="1c1d494c118603dd-1" vertex="1">
          <mxGeometry x="250" y="20" width="490" height="970" as="geometry" />
        </mxCell>
        <mxCell id="__kyZQ2Cpn_k_XHxGJDG-8" value="frmLoad()&lt;br&gt;Initialize()" style="shape=process;whiteSpace=wrap;html=1;backgroundOutline=1;" vertex="1" parent="1c1d494c118603dd-3">
          <mxGeometry x="70" y="154" width="120" height="60" as="geometry" />
        </mxCell>
        <mxCell id="__kyZQ2Cpn_k_XHxGJDG-13" value="ReadINIFIleString()" style="shape=process;whiteSpace=wrap;html=1;backgroundOutline=1;" vertex="1" parent="1c1d494c118603dd-3">
          <mxGeometry x="80" y="470" width="210" height="60" as="geometry" />
        </mxCell>
        <mxCell id="__kyZQ2Cpn_k_XHxGJDG-2" value="" style="shape=umlLifeline;perimeter=lifelinePerimeter;whiteSpace=wrap;html=1;container=1;dropTarget=0;collapsible=0;recursiveResize=0;outlineConnect=0;portConstraint=eastwest;newEdgeStyle={&quot;edgeStyle&quot;:&quot;elbowEdgeStyle&quot;,&quot;elbow&quot;:&quot;vertical&quot;,&quot;curved&quot;:0,&quot;rounded&quot;:0};participant=umlActor;" vertex="1" parent="1">
          <mxGeometry x="30" y="20" width="20" height="680" as="geometry" />
        </mxCell>
        <mxCell id="__kyZQ2Cpn_k_XHxGJDG-14" value="cmbDGradGruppe_Change()" style="shape=process;whiteSpace=wrap;html=1;backgroundOutline=1;" vertex="1" parent="1">
          <mxGeometry x="420" y="370" width="210" height="60" as="geometry" />
        </mxCell>
        <mxCell id="__kyZQ2Cpn_k_XHxGJDG-15" value="DGRadGruppe" style="html=1;verticalAlign=bottom;endArrow=block;edgeStyle=elbowEdgeStyle;elbow=vertical;curved=0;rounded=0;entryX=0.5;entryY=0;entryDx=0;entryDy=0;exitX=0.5;exitY=1;exitDx=0;exitDy=0;" edge="1" parent="1" source="__kyZQ2Cpn_k_XHxGJDG-14" target="__kyZQ2Cpn_k_XHxGJDG-13">
          <mxGeometry width="80" relative="1" as="geometry">
            <mxPoint x="500" y="440.33" as="sourcePoint" />
            <mxPoint x="580" y="440.33" as="targetPoint" />
          </mxGeometry>
        </mxCell>
      </root>
    </mxGraphModel>
  </diagram>
</mxfile>
